 <svg xmlns="http://www.w3.org/2000/svg" width="118" height="42" fill="currentColor" alt="TikTok">
              <path
                fill="#25F4EE"
                d="M9.875 16.842v-1.119A8.836 8.836 0 0 0 8.7 15.64c-4.797-.006-8.7 3.9-8.7 8.707a8.706 8.706 0 0 0 3.718 7.135A8.675 8.675 0 0 1 1.38 25.55c0-4.737 3.794-8.598 8.495-8.707Z"
              ></path>
              <path
                fill="#25F4EE"
                d="M10.086 29.526c2.14 0 3.89-1.707 3.967-3.83l.006-18.968h3.463a6.78 6.78 0 0 1-.11-1.202h-4.726l-.006 18.969a3.978 3.978 0 0 1-3.967 3.829 3.93 3.93 0 0 1-1.846-.46 3.949 3.949 0 0 0 3.22 1.662Zm13.906-16.36v-1.055a6.506 6.506 0 0 1-3.583-1.068 6.571 6.571 0 0 0 3.583 2.123Z"
              ></path>
              <path
                fill="#FE2C55"
                d="M20.409 11.043a6.54 6.54 0 0 1-1.616-4.315h-1.265a6.557 6.557 0 0 0 2.88 4.316ZM8.706 20.365a3.98 3.98 0 0 0-3.973 3.976c0 1.528.869 2.858 2.134 3.523a3.936 3.936 0 0 1-.754-2.321 3.98 3.98 0 0 1 3.973-3.976c.409 0 .805.07 1.175.185v-4.833a8.837 8.837 0 0 0-1.175-.083c-.07 0-.134.006-.204.006v3.708a3.999 3.999 0 0 0-1.176-.185Z"
              ></path>
              <path
                fill="#FE2C55"
                d="M23.992 13.166v3.676c-2.453 0-4.727-.786-6.58-2.116v9.621c0 4.802-3.902 8.714-8.706 8.714a8.669 8.669 0 0 1-4.988-1.579 8.69 8.69 0 0 0 6.368 2.781c4.797 0 8.707-3.906 8.707-8.714v-9.621a11.25 11.25 0 0 0 6.579 2.116v-4.73c-.48 0-.94-.052-1.38-.148Z"
              ></path>
              <path
                fill="black"
                d="M17.413 24.348v-9.622a11.251 11.251 0 0 0 6.58 2.116v-3.676a6.571 6.571 0 0 1-3.584-2.123 6.61 6.61 0 0 1-2.888-4.315H14.06l-.006 18.968a3.978 3.978 0 0 1-3.967 3.83A3.99 3.99 0 0 1 6.86 27.87a3.991 3.991 0 0 1-2.133-3.523A3.98 3.98 0 0 1 8.7 20.372c.409 0 .805.07 1.175.185v-3.708c-4.701.103-8.495 3.964-8.495 8.701 0 2.29.888 4.373 2.338 5.933a8.669 8.669 0 0 0 4.988 1.58c4.798 0 8.707-3.913 8.707-8.714Zm12.635-11.169h14.774l-1.354 4.232h-3.832v15.644h-4.778V17.41l-4.804.006-.006-4.238Zm38.984 0h15.12l-1.355 4.232h-4.17v15.644h-4.785V17.41l-4.804.006-.006-4.238ZM45.73 19.502h4.733v13.553h-4.708l-.026-13.553Zm6.617-6.374h4.733v9.257l4.689-4.61h5.646l-5.934 5.76 6.644 9.52h-5.213l-4.433-6.598-1.405 1.362v5.236H52.34V13.128h.006Zm50.143 0h4.734v9.257l4.688-4.61h5.647l-5.934 5.76 6.643 9.52h-5.206l-4.433-6.598-1.405 1.362v5.236h-4.734V13.128Zm-54.397 4.826a2.384 2.384 0 0 0 2.382-2.384 2.384 2.384 0 1 0-2.382 2.384Z"
              ></path>
              <path
                fill="#25F4EE"
                d="M83.544 24.942a8.112 8.112 0 0 1 7.474-8.087 8.748 8.748 0 0 0-.709-.026c-4.478 0-8.106 3.631-8.106 8.113 0 4.482 3.628 8.113 8.106 8.113.21 0 .498-.013.71-.026-4.178-.326-7.475-3.823-7.475-8.087Z"
              ></path>
              <path
                fill="#FE2C55"
                d="M92.858 16.83c-.217 0-.505.012-.716.025a8.111 8.111 0 0 1 7.468 8.087 8.112 8.112 0 0 1-7.468 8.087c.211.02.499.026.716.026 4.478 0 8.106-3.631 8.106-8.113 0-4.482-3.628-8.113-8.106-8.113Z"
              ></path>
              <path
                fill="black"
                d="M91.58 28.887a3.94 3.94 0 0 1-3.94-3.945 3.94 3.94 0 1 1 7.882 0c0 2.18-1.77 3.945-3.942 3.945Zm0-12.058c-4.477 0-8.106 3.631-8.106 8.113 0 4.482 3.629 8.113 8.106 8.113 4.478 0 8.106-3.631 8.106-8.113 0-4.482-3.628-8.113-8.106-8.113Z"
              ></path>
            <symbol data-count="2" xmlns="http://www.w3.org/2000/svg" viewBox="0 0 48 48" id="Music_Note-8c658968">
              <path d="M35 10.76a1 1 0 0 0-1.22-.98l-15.99 3.64a1 1 0 0 0-.78.97V38c.03 2.17-2.2 4.43-5.4 5.28-3.56.96-6.96-.2-7.6-2.57-.63-2.37 1.74-5.07 5.3-6.02a9.2 9.2 0 0 1 3.7-.25V14.39a5 5 0 0 1 3.9-4.87l15.98-3.64A5 5 0 0 1 39 10.76v22.36c.08 2.2-2.17 4.5-5.4 5.36-3.56.95-6.96-.2-7.6-2.57-.63-2.38 1.74-5.08 5.3-6.03a9.2 9.2 0 0 1 3.7-.25V10.76Z"></path>
            </symbol>
            <symbol data-count="2" xmlns="http://www.w3.org/2000/svg" viewBox="0 0 48 48" id="Play_Fill-6957a00f">
              <path d="M43 26.6a3 3 0 0 0 0-5.2L14.5 4.95a3 3 0 0 0-4.5 2.6v32.9a3 3 0 0 0 4.5 2.6L43 26.6Z"></path>
            </symbol>
            <symbol
              data-count="2"
              xmlns="http://www.w3.org/2000/svg"
              viewBox="0 0 48 48"
              id="Ellipsis_Horizontal_Fill-9ee69fcf"
            >
              <path d="M4 24a5 5 0 1 1 10 0 5 5 0 0 1-10 0Zm15 0a5 5 0 1 1 10 0 5 5 0 0 1-10 0Zm20-5a5 5 0 1 0 0 10 5 5 0 0 0 0-10Z"></path>
            </symbol>
            <symbol data-count="2" xmlns="http://www.w3.org/2000/svg" viewBox="0 0 24 24" id="heart-fill-03bd63df">
              <g fill-rule="evenodd" clip-path="url(#heart-fill-03bd63df_a)" clip-rule="evenodd">
                <path d="M7.5 2.25c3 0 4.5 2 4.5 2s1.5-2 4.5-2c3.5 0 6 2.75 6 6.25 0 4-3.269 7.566-6.25 10.25C14.41 20.407 13 21.5 12 21.5s-2.45-1.101-4.25-2.75C4.82 16.066 1.5 12.5 1.5 8.5c0-3.5 2.5-6.25 6-6.25Z"></path>
                <path
                  fill="black"
                  fill-opacity=".03"
                  d="M2.402 12.2c1.187 2.497 3.357 4.727 5.348 6.55C9.55 20.399 11 21.5 12 21.5s2.41-1.093 4.25-2.75c2.98-2.684 6.25-6.25 6.25-10.25 0-.087-.002-.174-.005-.26C20.567 13.661 13.68 18.5 11.75 18.5c-1.437 0-6.14-2.687-9.348-6.3Z"
                ></path>
              </g>
              <defs>
                <clipPath id="heart-fill-03bd63df_a">
                  <path fill="white" d="M0 0h24v24H0z"></path>
                </clipPath>
              </defs>
            </symbol>
            <symbol
              data-count="2"
              xmlns="http://www.w3.org/2000/svg"
              viewBox="0 0 48 48"
              id="Bubble_Ellipsis_Right_Fill-a497dc09"
            >
              <path d="M3.5 21.44C3.5 11.47 13.04 4 24 4s20.5 7.47 20.5 17.44c0 5.85-2.93 10.69-6.47 14.37a41.67 41.67 0 0 1-11.06 7.97A2.05 2.05 0 0 1 24 41.95v-3.08c-10.96 0-20.5-7.47-20.5-17.43Zm11.79 3.07a2.56 2.56 0 1 0 0-5.12 2.56 2.56 0 0 0 0 5.12Zm8.71 0a2.56 2.56 0 1 0 0-5.12 2.56 2.56 0 0 0 0 5.12Zm11.27-2.56a2.56 2.56 0 1 0-5.12 0 2.56 2.56 0 0 0 5.12 0Z"></path>
            </symbol>
            <symbol data-count="2" xmlns="http://www.w3.org/2000/svg" viewBox="0 0 24 24" id="uncollect-8a52664d">
              <path
                fill="currentColor"
                d="M4 4.5a2 2 0 0 1 2-2h12a2 2 0 0 1 2 2v15.13a1 1 0 0 1-1.555.831l-6.167-4.12a.5.5 0 0 0-.556 0l-6.167 4.12A1 1 0 0 1 4 19.63V4.5Z"
              ></path>
              <path
                fill="currentColor"
                fill-opacity=".03"
                d="M4.032 4.144A1.894 1.894 0 0 0 4 4.5v15.13a1 1 0 0 0 1.555.831l6.167-4.12a.5.5 0 0 1 .41-.066l-.427-.198a1.489 1.489 0 0 0-1.377.063c-.581.339-1.45.85-2.25 1.339-.59.359-1.427.695-2.187.962-.929.325-1.86-.387-1.86-1.37V4.143Zm8.251 12.202 6.162 4.115A1 1 0 0 0 20 19.63V4.5a2 2 0 0 0-1.123-1.798c.21.254.334.58.33.936a117.008 117.008 0 0 1-.896 13.408c-.124.99-1.17 1.553-2.076 1.133l-3.952-1.833Z"
              ></path>
            </symbol>
            <symbol data-count="2" xmlns="http://www.w3.org/2000/svg" viewBox="0 0 20 20" id="pc-share-44d9fe83">
              <path
                fill="currentColor"
                fill-rule="evenodd"
                d="M10.938 3.175a.674.674 0 0 1 1.138-.488l6.526 6.215c.574.547.554 1.47-.043 1.991l-6.505 5.676a.674.674 0 0 1-1.116-.508V13.49s-6.985-1.258-9.225 2.854c-.209.384-1.023.518-.857-1.395.692-3.52 2.106-9.017 10.082-9.017V3.175Z"
                clip-rule="evenodd"
              ></path>
              <path
                fill="#161823"
                fill-rule="evenodd"
                d="m15.754 6.212 1.295 2.59a1.122 1.122 0 0 1-.268 1.349l-5.799 5.042s-.28 1.403.562 1.403c.842 0 7.578-6.174 7.578-6.174s.28-.842-.561-1.684c-.843-.842-2.807-2.526-2.807-2.526Z"
                clip-rule="evenodd"
                opacity=".03"
              ></path>
              <path
                fill="url(#pc-share-44d9fe83_a)"
                fill-rule="evenodd"
                d="M10.937 6.23v7.297s-6.683-.942-8.777 2.246C.146 18.839.331 12.309 3.363 9.057c3.033-3.252 7.574-2.827 7.574-2.827Z"
                clip-rule="evenodd"
                opacity=".09"
              ></path>
              <defs>
                <radialGradient
                  id="pc-share-44d9fe83_a"
                  cx="0"
                  cy="0"
                  r="1"
                  gradientTransform="rotate(-113.046 11.628 5.43) scale(8.93256 8.78076)"
                  gradientUnits="userSpaceOnUse"
                >
                  <stop></stop>
                  <stop offset=".995" stop-opacity=".01"></stop>
                  <stop offset="1" stop-opacity=".01"></stop>
                </radialGradient>
              </defs>
            </symbol>
            <symbol xmlns="http://www.w3.org/2000/svg" viewBox="0 0 21 19" id="pc-6845b35b">
              <path
                fill="currentColor"
                d="M12.601 17h2.52a.84.84 0 1 1 0 1.68h-9.24a.84.84 0 1 1 0-1.68h2.1v-2.1h-6.3A1.682 1.682 0 0 1 0 13.22V1.88C0 .952.754.199 1.68.199h17.642c.927 0 1.68.753 1.68 1.68V13.22c0 .927-.753 1.68-1.68 1.68h-6.72V17zm-.84 0v-2.1h-2.94V17h2.94zM1.681 1.88v11.34h17.641V1.88H1.68z"
              ></path>
            </symbol>
        </svg>